<svg width="50" height="50" viewBox="0 0 50 50" fill="none" xmlns="http://www.w3.org/2000/svg">
<path fill-rule="evenodd" clip-rule="evenodd" d="M7.92222 1.11989C4.89662 2.71598 2.79276 4.81123 1.31096 7.7028C0.144667 9.97869 0 11.8643 0 24.7944C0 40.5436 0.358911 42.3313 4.24769 45.962C7.72658 49.21 10.0371 49.6154 24.9502 49.5996C40.1064 49.583 42.5458 49.0935 45.9503 45.387C49.1901 41.8604 49.6 39.5473 49.6 24.7944C49.6 10.0366 49.1846 7.69522 45.9503 4.22519C42.3095 0.318743 40.559 -0.028053 24.6553 0.00159354C12.6514 0.0243455 9.61344 0.227045 7.92222 1.11989ZM43.0066 6.57278C43.6018 7.16916 44.0889 7.92274 44.0889 8.24747C44.0889 9.01345 42.0987 11.0053 41.3333 11.0053C40.568 11.0053 38.5778 9.01345 38.5778 8.24747C38.5778 7.48149 40.568 5.48965 41.3333 5.48965C41.6578 5.48965 42.4108 5.9771 43.0066 6.57278ZM28.4353 11.7361C31.3858 12.5559 35.4344 15.8384 36.8314 18.5431C41.0316 26.6711 36.0137 36.502 26.7806 38.236C20.0026 39.508 12.7444 34.111 11.3694 26.7766C10.3147 21.1485 14.6217 14.0596 20.3222 12.0415C23.6785 10.8529 25.07 10.8005 28.4353 11.7361ZM20.5034 17.5999C15.2444 20.4556 15.3305 29.2717 20.6439 32.0219C26.434 35.0183 33.0667 31.1594 33.0667 24.7944C33.0667 18.4197 26.217 14.4974 20.5034 17.5999Z" fill="url(#paint0_linear_356_250)" fill-opacity="0.8"/>
<defs>
<linearGradient id="paint0_linear_356_250" x1="56.8847" y1="56.8737" x2="27.5973" y2="69.4061" gradientUnits="userSpaceOnUse">
<stop stop-color="#5BB9EF"/>
<stop offset="1" stop-color="#72BA58" stop-opacity="0.97"/>
</linearGradient>
</defs>
</svg>
