<svg width="50" height="50" viewBox="0 0 50 50" fill="none" xmlns="http://www.w3.org/2000/svg">
<path fill-rule="evenodd" clip-rule="evenodd" d="M2.75656 0.112482C1.45229 0.428786 0.450764 1.40359 0.105978 2.6922C0.0201126 3.01326 0.00155134 6.90974 0.00077146 24.7648C-0.000242388 48.5095 -0.0321396 46.8675 0.446708 47.7471C0.716236 48.2424 1.51265 48.9839 2.04055 49.2311C2.26929 49.3382 2.64247 49.4649 2.86973 49.5127C3.16787 49.5754 9.28683 49.5997 24.8265 49.5997C48.2535 49.5997 46.7448 49.627 47.6499 49.187C48.0924 48.9718 48.9779 48.106 49.1993 47.6719C49.625 46.8374 49.6004 48.2424 49.5994 24.7648C49.5987 6.90974 49.5801 3.01326 49.4942 2.6922C49.142 1.3759 48.0721 0.367724 46.7305 0.0879167C46.0967 -0.0442664 3.3042 -0.0203253 2.75656 0.112482ZM12.002 6.90623C13.4838 7.25552 14.7395 8.45803 15.1747 9.94472C15.3829 10.6556 15.3533 11.7496 15.1079 12.4201C14.4393 14.2465 12.9109 15.3593 11.0653 15.3635C9.85919 15.3662 8.86367 14.96 8.02366 14.1225C7.18217 13.2836 6.76625 12.2756 6.76625 11.0755C6.76625 9.65985 7.40006 8.41374 8.52816 7.61159C9.57531 6.867 10.7895 6.62049 12.002 6.90623ZM35.4455 18.1417C36.8009 18.327 38.2395 18.8698 39.0684 19.5086C39.1776 19.5928 39.4912 19.8791 39.7654 20.1451C41.0909 21.4311 41.8769 23.4124 42.1999 26.2824C42.2619 26.8335 42.303 29.581 42.3255 34.6852L42.359 42.2692H38.6098H34.8606L34.8603 35.465C34.86 28.1057 34.8453 27.8027 34.4373 26.719C34.2048 26.1011 34.0646 25.8708 33.6575 25.4374C33.0666 24.8085 32.1849 24.4876 31.0548 24.4901C29.0571 24.4946 27.6856 25.4211 27.1061 27.1574C26.7183 28.3193 26.7235 28.2168 26.6927 35.465L26.6639 42.2692H22.9632H19.2625L19.2822 30.4351L19.3019 18.601L22.8293 18.5807L26.3568 18.5604L26.3778 20.2184L26.3989 21.8763L26.7702 21.3186C27.2549 20.5905 28.2825 19.6286 29.0573 19.1775C30.9418 18.0803 32.7967 17.7796 35.4455 18.1417ZM14.7204 30.4351L14.7401 42.2692H11.0354H7.33073V30.4148V18.5604L11.0157 18.5807L14.7006 18.601L14.7204 30.4351Z" fill="url(#paint0_linear_356_252)" fill-opacity="0.8"/>
<defs>
<linearGradient id="paint0_linear_356_252" x1="56.8847" y1="56.8737" x2="27.5973" y2="69.4061" gradientUnits="userSpaceOnUse">
<stop stop-color="#5BB9EF"/>
<stop offset="1" stop-color="#72BA58" stop-opacity="0.97"/>
</linearGradient>
</defs>
</svg>
