<svg width="53" height="44" viewBox="0 0 53 44" fill="none" xmlns="http://www.w3.org/2000/svg">
<path fill-rule="evenodd" clip-rule="evenodd" d="M30.5304 1.4208C29.0702 2.10459 27.3645 3.25146 26.7393 3.9691C25.1796 5.76117 23.5615 9.88353 23.5615 12.0656C23.5615 13.8299 23.4885 13.8617 20.4241 13.4331C16.1798 12.8394 9.94892 9.73391 6.22819 6.35694C4.54305 4.82824 2.97472 3.77005 2.74375 4.00566C1.95394 4.81199 2.32097 10.3656 3.29064 12.2788C3.82293 13.3289 5.39126 15.1318 6.77508 16.2847L9.29185 18.3815L7.09101 18.4038C5.88108 18.4167 4.31275 18.1113 3.60656 17.7261C2.62428 17.1899 2.32296 17.2454 2.32296 17.9644C2.32296 20.0551 5.46493 23.5844 8.91354 25.3663C12.6927 27.3195 12.3787 27.6451 7.08039 27.2673C5.11583 27.1272 4.94194 27.2491 5.52533 28.3614C6.67354 30.5489 8.85646 32.1392 12.3814 33.3565L15.8054 34.5392L13.0039 35.9968C11.3075 36.8803 8.19076 37.646 5.10123 37.9385L0 38.4226L3.65037 40.1862C9.08477 42.813 13.732 43.7216 19.2819 43.243C32.8653 42.0717 43.1872 33.5013 46.4626 20.6745C47.0081 18.5372 47.4548 15.5705 47.4548 14.0817C47.4548 11.8713 47.9108 10.895 49.9437 8.75562L52.4326 6.13556L49.7778 6.58848L47.1229 7.04209L48.8818 5.45651C49.8488 4.58451 51.1337 3.06189 51.737 2.07345L52.8348 0.275961L48.7809 1.94617L44.727 3.61637L41.3149 1.88185C37.2995 -0.159362 34.1874 -0.292057 30.5304 1.4208Z" fill="url(#paint0_linear_356_251)" fill-opacity="0.8"/>
<defs>
<linearGradient id="paint0_linear_356_251" x1="60.5946" y1="49.6901" x2="31.6406" y2="64.8676" gradientUnits="userSpaceOnUse">
<stop stop-color="#5BB9EF"/>
<stop offset="1" stop-color="#72BA58" stop-opacity="0.97"/>
</linearGradient>
</defs>
</svg>
