<svg width="42" height="42" viewBox="0 0 69 68" fill="none" xmlns="http://www.w3.org/2000/svg">
<path fill-rule="evenodd" clip-rule="evenodd" d="M11.0208 1.53533C6.81183 3.72352 3.88508 6.59604 1.82371 10.5603C0.20125 13.6805 0 16.2656 0 33.9923C0 55.584 0.499292 58.0349 5.90908 63.0124C10.7487 67.4654 13.9629 68.0211 34.7089 67.9994C55.7932 67.9767 59.1867 67.3056 63.9228 62.2241C68.4298 57.3893 69 54.2181 69 33.9923C69 13.7599 68.4221 10.5499 63.9228 5.7926C58.858 0.436986 56.4228 -0.0384598 34.2988 0.00218469C17.5998 0.033377 13.3735 0.311271 11.0208 1.53533ZM59.8278 9.01108C60.6558 9.82869 61.3333 10.8618 61.3333 11.307C61.3333 12.3572 58.5647 15.0879 57.5 15.0879C56.4353 15.0879 53.6667 12.3572 53.6667 11.307C53.6667 10.2569 56.4353 7.52613 57.5 7.52613C57.9514 7.52613 58.9988 8.1944 59.8278 9.01108ZM39.5571 16.0898C43.6617 17.2137 49.2938 21.7139 51.2373 25.422C57.0802 36.5652 50.0998 50.0431 37.2552 52.4203C27.8262 54.1642 17.7292 46.765 15.8163 36.7098C14.3491 28.994 20.3406 19.2752 28.2708 16.5086C32.9398 14.879 34.8757 14.8072 39.5571 16.0898ZM28.5229 24.1289C21.207 28.044 21.3267 40.1306 28.7184 43.901C36.7732 48.009 46 42.7186 46 33.9923C46 25.2528 36.4713 19.8754 28.5229 24.1289Z" fill="url(#paint0_linear_1233_131)" fill-opacity="0.8"/>
<defs>
<linearGradient id="paint0_linear_1233_131" x1="79.134" y1="77.972" x2="38.5774" y2="95.5818" gradientUnits="userSpaceOnUse">
<stop stop-color="#5BB9EF"/>
<stop offset="1" stop-color="#72BA58" stop-opacity="0.97"/>
</linearGradient>
</defs>
</svg>
