<svg width="42" height="42" viewBox="0 0 69 68" fill="none" xmlns="http://www.w3.org/2000/svg">
<path fill-rule="evenodd" clip-rule="evenodd" d="M3.83474 0.154209C2.02032 0.587851 0.627071 1.92427 0.147429 3.69092C0.0279792 4.13108 0.00215812 9.47303 0.0010732 33.9518C-0.000337193 66.505 -0.0447103 64.2538 0.621429 65.4597C0.996376 66.1388 2.10429 67.1553 2.83867 67.4943C3.15688 67.6411 3.67601 67.8148 3.99216 67.8803C4.40692 67.9663 12.9192 67.9995 34.5369 67.9995C67.1269 67.9995 65.0281 68.037 66.2871 67.4338C66.9027 67.1388 68.1346 65.9518 68.4425 65.3566C69.0348 64.2126 69.0006 66.1387 68.9992 33.9518C68.9981 9.47303 68.9723 4.13108 68.8529 3.69092C68.3629 1.88632 66.8745 0.504138 65.0081 0.120531C64.1264 -0.0606878 4.59657 -0.0278653 3.83474 0.154209ZM16.6963 9.46822C18.7577 9.94708 20.5045 11.5957 21.11 13.6339C21.3995 14.6084 21.3584 16.1083 21.017 17.0276C20.0869 19.5315 17.9607 21.0571 15.3932 21.0628C13.7154 21.0665 12.3305 20.5096 11.1619 19.3615C9.99132 18.2114 9.41273 16.8294 9.41273 15.1841C9.41273 13.2433 10.2944 11.535 11.8638 10.4353C13.3205 9.41444 15.0096 9.07648 16.6963 9.46822ZM49.3093 24.8717C51.1949 25.1257 53.1961 25.8699 54.3493 26.7457C54.5011 26.8611 54.9374 27.2536 55.3187 27.6182C57.1628 29.3813 58.2561 32.0976 58.7055 36.0323C58.7918 36.7879 58.8489 40.5546 58.8803 47.5523L58.9268 57.9496H53.7112H48.4956L48.4951 48.6214C48.4947 38.532 48.4743 38.1166 47.9068 36.6308C47.5833 35.7838 47.3883 35.468 46.8219 34.8739C45.9999 34.0117 44.7733 33.5717 43.2013 33.5751C40.4222 33.5813 38.5142 34.8515 37.708 37.2319C37.1686 38.8248 37.1758 38.6843 37.133 48.6214L37.093 57.9496H31.9447H26.7966L26.824 41.7255L26.8515 25.5013L31.7586 25.4735L36.6656 25.4457L36.6949 27.7187L36.7242 29.9917L37.2409 29.2271C37.9151 28.2289 39.3446 26.9101 40.4224 26.2917C43.0441 24.7876 45.6245 24.3753 49.3093 24.8717ZM20.4779 41.7255L20.5054 57.9496H15.3517H10.198V41.6977V25.4457L15.3242 25.4735L20.4505 25.5013L20.4779 41.7255Z" fill="url(#paint0_linear_1233_132)" fill-opacity="0.8"/>
<defs>
<linearGradient id="paint0_linear_1233_132" x1="79.134" y1="77.972" x2="38.5774" y2="95.5818" gradientUnits="userSpaceOnUse">
<stop stop-color="#5BB9EF"/>
<stop offset="1" stop-color="#72BA58" stop-opacity="0.97"/>
</linearGradient>
</defs>
</svg>
