<svg width="101" height="138" viewBox="0 0 101 138" fill="none" xmlns="http://www.w3.org/2000/svg">
<path d="M41.7881 -6.5506e-05C41.7881 -6.5506e-05 41.634 22.1848 50.6667 28.9394C57.361 33.9454 72 36.6559 72 36.6559C72 36.6559 53.9754 39.0529 48 47.2233C42.1244 55.2572 40.6667 70.9999 40.6667 70.9999C40.6667 70.9999 39.1637 54.0845 32.7111 45.9021C27.0752 38.7553 8 36.6559 8 36.6559C16.6517 36.6559 26.6166 33.5593 32.7111 28.9394C39.489 23.8014 41.7881 -6.5506e-05 41.7881 -6.5506e-05Z" fill="#FDFF8E"/>
<path d="M77.869 65C77.869 65 77.751 80.6231 84.6667 85.3799C89.792 88.9052 101 90.814 101 90.814C101 90.814 87.1999 92.502 82.625 98.2558C78.1265 103.914 77.0104 115 77.0104 115C77.0104 115 75.8597 103.088 70.9194 97.3254C66.6044 92.2925 52 90.814 52 90.814C58.6239 90.814 66.2533 88.6333 70.9194 85.3799C76.1088 81.7615 77.869 65 77.869 65Z" fill="#FDFF8E"/>
<path d="M21.1176 96C21.1176 96 21.0213 109.123 26.6667 113.119C30.8506 116.08 40 117.684 40 117.684C40 117.684 28.7346 119.102 25 123.935C21.3278 128.687 20.4167 138 20.4167 138C20.4167 138 19.4773 127.994 15.4444 123.153C11.922 118.926 0 117.684 0 117.684C5.4073 117.684 11.6354 115.852 15.4444 113.119C19.6806 110.08 21.1176 96 21.1176 96Z" fill="#FDFF8E"/>
</svg>
