<svg width="42" height="42" viewBox="0 0 84 62" fill="none" xmlns="http://www.w3.org/2000/svg">
<path fill-rule="evenodd" clip-rule="evenodd" d="M48.5391 1.70496C46.2176 2.68791 43.5058 4.33653 42.5118 5.36814C40.0321 7.94424 37.4595 13.8701 37.4595 17.0068C37.4595 19.543 37.3434 19.5887 32.4716 18.9727C25.7236 18.1192 15.8174 13.6551 9.90197 8.80067C7.22282 6.60315 4.72939 5.08201 4.36218 5.42069C3.1065 6.57979 3.69002 14.5631 5.23167 17.3134C6.07793 18.8228 8.57136 21.4145 10.7714 23.0719L14.7728 26.0859L11.2737 26.118C9.3501 26.1365 6.85667 25.6976 5.73394 25.1439C4.17225 24.3731 3.69319 24.4529 3.69319 25.4864C3.69319 28.4917 8.68849 33.5651 14.1713 36.1266C20.1796 38.9343 19.6805 39.4024 11.2568 38.8594C8.13346 38.6579 7.857 38.8331 8.78451 40.4321C10.61 43.5765 14.0805 45.8626 19.6847 47.6125L25.1285 49.3127L20.6745 51.408C17.9774 52.678 13.0222 53.7787 8.11024 54.1992L0 54.895L5.80358 57.4302C14.4435 61.2063 21.832 62.5124 30.6556 61.8243C52.2512 60.1406 68.6617 47.8207 73.869 29.3822C74.7364 26.3098 75.4466 22.0451 75.4466 19.905C75.4466 16.7275 76.1715 15.3241 79.4036 12.2488L83.3605 8.48242L79.1398 9.1335L74.919 9.78556L77.7152 7.50629C79.2527 6.25279 81.2955 4.06403 82.2547 2.64314L84 0.0592538L77.5549 2.46017L71.1097 4.86109L65.6849 2.36772C59.301 -0.566523 54.3532 -0.757273 48.5391 1.70496Z" fill="url(#paint0_linear_1233_130)" fill-opacity="0.8"/>
<defs>
<linearGradient id="paint0_linear_1233_130" x1="96.3371" y1="71.0921" x2="52.4173" y2="96.5546" gradientUnits="userSpaceOnUse">
<stop stop-color="#5BB9EF"/>
<stop offset="1" stop-color="#72BA58" stop-opacity="0.97"/>
</linearGradient>
</defs>
</svg>
