{
  "accessors": [
    {
      "bufferView": 2,
      "componentType": 5126,
      "count": 400,
      "max": [
        2700.0,
        463.0263366699219,
        600.0
      ],
      "min": [
        -2700.0,
        -1.692718267440796,
        -600.0
      ],
      "type": "VEC3"
    },
    {
      "bufferView": 2,
      "byteOffset": 4800,
      "componentType": 5126,
      "count": 400,
      "max": [
        1.0,
        1.0,
        1.0
      ],
      "min": [
        -1.0,
        -1.0,
        -1.0
      ],
      "type": "VEC3"
    },
    {
      "bufferView": 1,
      "componentType": 5126,
      "count": 400,
      "max": [
        0.875,
        1.0
      ],
      "min": [
        0.125,
        0.0
      ],
      "type": "VEC2"
    },
    {
      "bufferView": 0,
      "componentType": 5125,
      "count": 624,
      "type": "SCALAR"
    },
    {
      "bufferView": 2,
      "byteOffset": 9600,
      "componentType": 5126,
      "count": 2488,
      "max": [
        1171.6893310546875,
        1693.635986328125,
        658.6693725585938
      ],
      "min": [
        828.3106689453125,
        -1.692742109298706,
        -658.6693725585938
      ],
      "type": "VEC3"
    },
    {
      "bufferView": 2,
      "byteOffset": 39456,
      "componentType": 5126,
      "count": 2488,
      "max": [
        1.0,
        1.0,
        1.0
      ],
      "min": [
        -1.0,
        -1.0,
        -1.0
      ],
      "type": "VEC3"
    },
    {
      "bufferView": 1,
      "byteOffset": 3200,
      "componentType": 5126,
      "count": 2488,
      "max": [
        0.875,
        1.0
      ],
      "min": [
        0.125,
        0.0
      ],
      "type": "VEC2"
    },
    {
      "bufferView": 0,
      "byteOffset": 2496,
      "componentType": 5125,
      "count": 4272,
      "type": "SCALAR"
    },
    {
      "bufferView": 2,
      "byteOffset": 69312,
      "componentType": 5126,
      "count": 2488,
      "max": [
        -828.3106689453125,
        1693.635986328125,
        658.6693725585938
      ],
      "min": [
        -1171.6893310546875,
        -1.692742109298706,
        -658.6693725585938
      ],
      "type": "VEC3"
    },
    {
      "bufferView": 2,
      "byteOffset": 99168,
      "componentType": 5126,
      "count": 2488,
      "max": [
        1.0,
        1.0,
        1.0
      ],
      "min": [
        -1.0,
        -1.0,
        -1.0
      ],
      "type": "VEC3"
    },
    {
      "bufferView": 1,
      "byteOffset": 23104,
      "componentType": 5126,
      "count": 2488,
      "max": [
        0.875,
        1.0
      ],
      "min": [
        0.125,
        0.0
      ],
      "type": "VEC2"
    },
    {
      "bufferView": 0,
      "byteOffset": 19584,
      "componentType": 5125,
      "count": 4272,
      "type": "SCALAR"
    },
    {
      "bufferView": 2,
      "byteOffset": 129024,
      "componentType": 5126,
      "count": 812,
      "max": [
        2657.2158203125,
        378.3843078613281,
        416.6962585449219
      ],
      "min": [
        -2579.935546875,
        118.3541259765625,
        -416.6961669921875
      ],
      "type": "VEC3"
    },
    {
      "bufferView": 2,
      "byteOffset": 138768,
      "componentType": 5126,
      "count": 812,
      "max": [
        0.9806600213050842,
        0.9999912977218628,
        1.0
      ],
      "min": [
        -0.9806600213050842,
        -0.9999912977218628,
        -1.0
      ],
      "type": "VEC3"
    },
    {
      "bufferView": 1,
      "byteOffset": 43008,
      "componentType": 5126,
      "count": 812,
      "max": [
        1.0,
        1.0
      ],
      "min": [
        0.0,
        0.0
      ],
      "type": "VEC2"
    },
    {
      "bufferView": 0,
      "byteOffset": 36672,
      "componentType": 5125,
      "count": 2580,
      "type": "SCALAR"
    },
    {
      "bufferView": 2,
      "byteOffset": 148512,
      "componentType": 5126,
      "count": 936,
      "max": [
        999.1995849609375,
        1511.153564453125,
        513.5740966796875
      ],
      "min": [
        -999.1962280273438,
        401.0095520019531,
        -513.5740966796875
      ],
      "type": "VEC3"
    },
    {
      "bufferView": 2,
      "byteOffset": 159744,
      "componentType": 5126,
      "count": 936,
      "max": [
        1.0,
        0.8601914644241333,
        0.9999858140945435
      ],
      "min": [
        -1.0,
        -0.8689640760421753,
        -0.9999858140945435
      ],
      "type": "VEC3"
    },
    {
      "bufferView": 1,
      "byteOffset": 49504,
      "componentType": 5126,
      "count": 936,
      "max": [
        1.0,
        1.0
      ],
      "min": [
        0.0,
        0.0
      ],
      "type": "VEC2"
    },
    {
      "bufferView": 0,
      "byteOffset": 46992,
      "componentType": 5125,
      "count": 3168,
      "type": "SCALAR"
    },
    {
      "bufferView": 2,
      "byteOffset": 170976,
      "componentType": 5126,
      "count": 1680,
      "max": [
        2609.564697265625,
        1538.1763916015625,
        513.5741577148438
      ],
      "min": [
        -2609.564697265625,
        224.725341796875,
        -513.5741577148438
      ],
      "type": "VEC3"
    },
    {
      "bufferView": 2,
      "byteOffset": 191136,
      "componentType": 5126,
      "count": 1680,
      "max": [
        1.0,
        0.8640313148498535,
        0.9999904632568359
      ],
      "min": [
        -1.0,
        -0.8677712678909302,
        -0.9999904632568359
      ],
      "type": "VEC3"
    },
    {
      "bufferView": 1,
      "byteOffset": 56992,
      "componentType": 5126,
      "count": 1680,
      "max": [
        1.0,
        1.0
      ],
      "min": [
        0.0,
        0.0
      ],
      "type": "VEC2"
    },
    {
      "bufferView": 0,
      "byteOffset": 59664,
      "componentType": 5125,
      "count": 6048,
      "type": "SCALAR"
    },
    {
      "bufferView": 2,
      "byteOffset": 211296,
      "componentType": 5126,
      "count": 856,
      "max": [
        2666.029296875,
        423.3828430175781,
        552.4920654296875
      ],
      "min": [
        -2588.7490234375,
        101.8636703491211,
        -552.491943359375
      ],
      "type": "VEC3"
    },
    {
      "bufferView": 2,
      "byteOffset": 221568,
      "componentType": 5126,
      "count": 856,
      "max": [
        0.9967893362045288,
        0.9999912977218628,
        1.0
      ],
      "min": [
        -0.9967893362045288,
        -0.9999912977218628,
        -1.0
      ],
      "type": "VEC3"
    },
    {
      "bufferView": 1,
      "byteOffset": 70432,
      "componentType": 5126,
      "count": 856,
      "max": [
        1.0,
        1.0
      ],
      "min": [
        0.0,
        0.0
      ],
      "type": "VEC2"
    },
    {
      "bufferView": 0,
      "byteOffset": 83856,
      "componentType": 5125,
      "count": 1704,
      "type": "SCALAR"
    },
    {
      "bufferView": 2,
      "byteOffset": 231840,
      "componentType": 5126,
      "count": 404,
      "max": [
        2409.00048828125,
        382.3042907714844,
        15.51877212524414
      ],
      "min": [
        -2458.648681640625,
        190.8619842529297,
        -15.518638610839844
      ],
      "type": "VEC3"
    },
    {
      "bufferView": 2,
      "byteOffset": 236688,
      "componentType": 5126,
      "count": 404,
      "max": [
        1.0,
        1.0,
        1.0
      ],
      "min": [
        -0.9999621510505676,
        -1.0,
        -1.0
      ],
      "type": "VEC3"
    },
    {
      "bufferView": 1,
      "byteOffset": 77280,
      "componentType": 5126,
      "count": 404,
      "max": [
        0.9428572058677673,
        0.5186211466789246
      ],
      "min": [
        0.02857142873108387,
        0.4813788831233978
      ],
      "type": "VEC2"
    },
    {
      "bufferView": 0,
      "byteOffset": 90672,
      "componentType": 5125,
      "count": 660,
      "type": "SCALAR"
    }
  ],
  "asset": {
    "extras": {
      "author": "vitorsaito (https://sketchfab.com/vitorsaito)",
      "license": "CC-BY-4.0 (http://creativecommons.org/licenses/by/4.0/)",
      "source": "https://sketchfab.com/3d-models/golden-gate-bridge-stylized-low-poly-b4e1a33675d746f0be8e991b3268407c",
      "title": "Golden Gate Bridge Stylized Low Poly"
    },
    "generator": "Sketchfab-12.67.0",
    "version": "2.0"
  },
  "bufferViews": [
    {
      "buffer": 0,
      "byteLength": 93312,
      "name": "floatBufferViews",
      "target": 34963
    },
    {
      "buffer": 0,
      "byteLength": 80512,
      "byteOffset": 93312,
      "byteStride": 8,
      "name": "floatBufferViews",
      "target": 34962
    },
    {
      "buffer": 0,
      "byteLength": 241536,
      "byteOffset": 173824,
      "byteStride": 12,
      "name": "floatBufferViews",
      "target": 34962
    }
  ],
  "buffers": [
    {
      "byteLength": 415360,
      "uri": "scene.bin"
    }
  ],
  "materials": [
    {
      "doubleSided": true,
      "name": "material",
      "pbrMetallicRoughness": {
        "baseColorFactor": [
          0.8,
          0.0326277,
          4.36646e-05,
          1.0
        ],
        "metallicFactor": 0.0,
        "roughnessFactor": 0.9567503122511538
      }
    },
    {
      "doubleSided": true,
      "name": "asfalto",
      "pbrMetallicRoughness": {
        "baseColorFactor": [
          0.0765801,
          0.0765801,
          0.0765801,
          1.0
        ],
        "metallicFactor": 0.0,
        "roughnessFactor": 0.9828761690676269
      }
    },
    {
      "doubleSided": true,
      "name": "faixa",
      "pbrMetallicRoughness": {
        "baseColorFactor": [
          0.8,
          0.50401,
          0.0103957,
          1.0
        ],
        "metallicFactor": 0.0,
        "roughnessFactor": 0.8811980389491424
      }
    }
  ],
  "meshes": [
    {
      "name": "Cube_red_0",
      "primitives": [
        {
          "attributes": {
            "NORMAL": 1,
            "POSITION": 0,
            "TEXCOORD_0": 2
          },
          "indices": 3,
          "material": 0,
          "mode": 4
        }
      ]
    },
    {
      "name": "Cube.005_red_0",
      "primitives": [
        {
          "attributes": {
            "NORMAL": 5,
            "POSITION": 4,
            "TEXCOORD_0": 6
          },
          "indices": 7,
          "material": 0,
          "mode": 4
        }
      ]
    },
    {
      "name": "Cube.001_red_0",
      "primitives": [
        {
          "attributes": {
            "NORMAL": 9,
            "POSITION": 8,
            "TEXCOORD_0": 10
          },
          "indices": 11,
          "material": 0,
          "mode": 4
        }
      ]
    },
    {
      "name": "NurbsCurve_asfalto_0",
      "primitives": [
        {
          "attributes": {
            "NORMAL": 13,
            "POSITION": 12,
            "TEXCOORD_0": 14
          },
          "indices": 15,
          "material": 1,
          "mode": 4
        }
      ]
    },
    {
      "name": "NurbsCurve.001_red_0",
      "primitives": [
        {
          "attributes": {
            "NORMAL": 17,
            "POSITION": 16,
            "TEXCOORD_0": 18
          },
          "indices": 19,
          "material": 0,
          "mode": 4
        }
      ]
    },
    {
      "name": "NurbsCurve.002_red_0",
      "primitives": [
        {
          "attributes": {
            "NORMAL": 21,
            "POSITION": 20,
            "TEXCOORD_0": 22
          },
          "indices": 23,
          "material": 0,
          "mode": 4
        }
      ]
    },
    {
      "name": "NurbsCurve.003_red_0",
      "primitives": [
        {
          "attributes": {
            "NORMAL": 25,
            "POSITION": 24,
            "TEXCOORD_0": 26
          },
          "indices": 27,
          "material": 0,
          "mode": 4
        }
      ]
    },
    {
      "name": "NurbsCurve.008_faixa_0",
      "primitives": [
        {
          "attributes": {
            "NORMAL": 29,
            "POSITION": 28,
            "TEXCOORD_0": 30
          },
          "indices": 31,
          "material": 2,
          "mode": 4
        }
      ]
    }
  ],
  "nodes": [
    {
      "children": [
        1
      ],
      "matrix": [
        1.0,
        0.0,
        0.0,
        0.0,
        0.0,
        2.220446049250313e-16,
        -1.0,
        0.0,
        0.0,
        1.0,
        2.220446049250313e-16,
        0.0,
        0.0,
        0.0,
        0.0,
        1.0
      ],
      "name": "Sketchfab_model"
    },
    {
      "children": [
        2
      ],
      "matrix": [
        1.0,
        0.0,
        0.0,
        0.0,
        0.0,
        0.0,
        1.0,
        0.0,
        0.0,
        -1.0,
        0.0,
        0.0,
        0.0,
        0.0,
        0.0,
        1.0
      ],
      "name": "225a6d0dccc44f2fb51084cbba56215e.fbx"
    },
    {
      "children": [
        3,
        5,
        7,
        9,
        11,
        13,
        15,
        17
      ],
      "name": "RootNode"
    },
    {
      "children": [
        4
      ],
      "name": "Cube"
    },
    {
      "mesh": 0,
      "name": "Cube_red_0"
    },
    {
      "children": [
        6
      ],
      "name": "Cube.005"
    },
    {
      "mesh": 1,
      "name": "Cube.005_red_0"
    },
    {
      "children": [
        8
      ],
      "name": "Cube.001"
    },
    {
      "mesh": 2,
      "name": "Cube.001_red_0"
    },
    {
      "children": [
        10
      ],
      "name": "NurbsCurve"
    },
    {
      "mesh": 3,
      "name": "NurbsCurve_asfalto_0"
    },
    {
      "children": [
        12
      ],
      "name": "NurbsCurve.001"
    },
    {
      "mesh": 4,
      "name": "NurbsCurve.001_red_0"
    },
    {
      "children": [
        14
      ],
      "name": "NurbsCurve.002"
    },
    {
      "mesh": 5,
      "name": "NurbsCurve.002_red_0"
    },
    {
      "children": [
        16
      ],
      "name": "NurbsCurve.003"
    },
    {
      "mesh": 6,
      "name": "NurbsCurve.003_red_0"
    },
    {
      "children": [
        18
      ],
      "name": "NurbsCurve.008"
    },
    {
      "mesh": 7,
      "name": "NurbsCurve.008_faixa_0"
    }
  ],
  "scene": 0,
  "scenes": [
    {
      "name": "Sketchfab_Scene",
      "nodes": [
        0
      ]
    }
  ]
}
