<svg width="183" height="50" viewBox="0 0 183 50" fill="none" xmlns="http://www.w3.org/2000/svg">
<path d="M182.99 4.17222C183.085 3.34927 182.495 2.60503 181.672 2.50992L168.261 0.959936C167.439 0.864821 166.694 1.45485 166.599 2.2778C166.504 3.10075 167.094 3.84498 167.917 3.9401L179.838 5.31786L178.46 17.2385C178.365 18.0615 178.955 18.8057 179.778 18.9008C180.601 18.9959 181.345 18.4059 181.44 17.5829L182.99 4.17222ZM0.5 48C0.5 49.5 0.500736 49.5 0.501949 49.5C0.502991 49.5 0.504682 49.5 0.506764 49.5C0.510926 49.5 0.516993 49.5 0.524953 49.5C0.540873 49.5 0.564364 49.4999 0.595332 49.4998C0.657269 49.4997 0.749118 49.4993 0.870132 49.4986C1.11216 49.4973 1.47085 49.4946 1.94025 49.4892C2.87903 49.4783 4.26066 49.4568 6.03738 49.4136C9.59072 49.3274 14.725 49.1549 21.0581 48.8103C33.7224 48.1211 51.1899 46.7426 70.4007 43.9848C108.733 38.482 154.342 27.4452 182.432 5.17542L180.568 2.82458C153.158 24.5548 108.267 35.518 69.9743 41.0152C50.8726 43.7574 33.4964 45.1289 20.8951 45.8147C14.5953 46.1576 9.49131 46.3289 5.96457 46.4145C4.20126 46.4573 2.8324 46.4787 1.9057 46.4894C1.44235 46.4947 1.08956 46.4974 0.853288 46.4987C0.735151 46.4993 0.646144 46.4997 0.587014 46.4998C0.557449 46.4999 0.535353 46.5 0.52082 46.5C0.513553 46.5 0.508177 46.5 0.504703 46.5C0.502966 46.5 0.501791 46.5 0.50092 46.5C0.500222 46.5 0.5 46.5 0.5 48Z" fill="white"/>
</svg>
