<svg width="52" height="52" viewBox="0 0 97 101" fill="none" xmlns="http://www.w3.org/2000/svg">
<path d="M15.7337 2.71769L15.7338 2.71762C17.2862 1.86465 19.5047 1.31133 24.3268 0.976006C29.1403 0.641279 36.4776 0.526403 48.2181 0.503243C63.7898 0.473031 72.3606 0.636981 77.9319 1.78695C80.7 2.35831 82.7059 3.16976 84.4515 4.31217C86.2037 5.45894 87.7177 6.95438 89.4899 8.93345L89.8624 8.5999L89.49 8.93347C91.0562 10.6823 92.2617 12.2676 93.1999 14.1227C94.1377 15.977 94.8196 18.1232 95.3103 21.0014C96.2954 26.78 96.5 35.4344 96.5 50.4661C96.5 65.4931 96.2981 74.1306 95.3143 79.908C94.8243 82.7855 94.1427 84.9354 93.204 86.8008C92.2648 88.6673 91.0572 90.271 89.4876 92.0492L89.8624 92.3801L89.4875 92.0492C87.8382 93.9182 86.3284 95.3552 84.5396 96.4738C82.7536 97.5908 80.6651 98.4052 77.8442 98.9942C72.1749 100.178 63.6286 100.437 48.7931 100.454C34.1966 100.47 25.8262 100.27 20.2548 99.2518C17.4814 98.7447 15.4209 98.0374 13.6423 97.0624C11.8619 96.0864 10.3407 94.8295 8.65542 93.1919C6.76356 91.3536 5.33045 89.7761 4.22871 87.9505C3.13013 86.13 2.34699 84.0389 1.79254 81.1634C0.677569 75.3807 0.5 66.5129 0.5 50.4661C0.5 37.3008 0.571029 29.7828 0.925212 24.9769C1.27772 20.1938 1.90757 18.1428 3.01234 15.899C5.8635 10.1084 9.90394 5.91844 15.7337 2.71769ZM84.4666 13.0321L84.4662 13.0317C83.8602 12.4012 83.1738 11.8269 82.5499 11.4065C82.2381 11.1965 81.9336 11.0193 81.6559 10.8926C81.3911 10.7718 81.1009 10.6736 80.8333 10.6736C80.5438 10.6736 80.2438 10.7685 79.9645 10.8959C79.6783 11.0265 79.3762 11.2087 79.0723 11.4223C78.4643 11.8497 77.8132 12.4281 77.2169 13.0493C76.6205 13.6705 76.0658 14.3482 75.6563 14.9801C75.4517 15.296 75.2778 15.6089 75.1537 15.9042C75.0321 16.1933 74.9444 16.4975 74.9444 16.7868C74.9444 17.0761 75.0321 17.3803 75.1537 17.6694C75.2778 17.9646 75.4517 18.2775 75.6563 18.5935C76.0658 19.2254 76.6205 19.9031 77.2169 20.5243C77.8132 21.1454 78.4643 21.7238 79.0723 22.1512C79.3762 22.3648 79.6783 22.5471 79.9645 22.6777C80.2438 22.8051 80.5438 22.9 80.8333 22.9C81.1228 22.9 81.4228 22.8051 81.7021 22.6777C81.9883 22.5471 82.2905 22.3648 82.5943 22.1512C83.2024 21.7238 83.8535 21.1454 84.4498 20.5243C85.0462 19.9031 85.6009 19.2254 86.0103 18.5935C86.215 18.2775 86.3888 17.9646 86.513 17.6694C86.6345 17.3803 86.7222 17.0761 86.7222 16.7868C86.7222 16.521 86.6318 16.2274 86.5161 15.9523C86.3956 15.6656 86.2265 15.3501 86.0253 15.0261C85.6227 14.3777 85.072 13.6634 84.4666 13.0321ZM52.4691 78.3157L52.4692 78.3157C70.8526 74.7226 80.8366 54.3567 72.4771 37.52C71.0694 34.6837 68.3521 31.5855 65.281 28.9941C62.2106 26.4033 58.7266 24.2685 55.7482 23.4072C52.4424 22.4506 50.0548 21.9832 47.65 22.0774C45.2463 22.1716 42.8654 22.8255 39.5701 24.04C33.8626 26.143 28.8881 30.8699 25.6029 36.4974C22.3181 42.1243 20.6849 48.7157 21.7425 54.5893L21.7425 54.5893C24.4708 69.7357 38.8868 80.9687 52.4691 78.3157ZM40.6093 64.7368C35.6179 62.0479 33.0356 56.3615 32.9813 50.5757C32.9271 44.7899 35.4024 39.0504 40.3434 36.2579C51.1733 30.1374 64.1667 37.8617 64.1667 50.4661C64.1667 63.0511 51.5926 70.6524 40.6093 64.7368Z" fill="url(#paint0_linear_1063_166)" fill-opacity="0.8" stroke="black"/>
<defs>
<linearGradient id="paint0_linear_1063_166" x1="111.246" y1="115.76" x2="53.2815" y2="139.592" gradientUnits="userSpaceOnUse">
<stop stop-color="#5BB9EF"/>
<stop offset="1" stop-color="#72BA58" stop-opacity="0.97"/>
</linearGradient>
</defs>
</svg>
