<svg width="52" height="52" viewBox="0 0 97 101" fill="none" xmlns="http://www.w3.org/2000/svg">
<path d="M30.1577 20.106C29.2609 16.9179 26.6749 14.3279 23.5908 13.5712L23.5907 13.5712C21.0681 12.9525 18.542 13.4911 16.3806 15.0906C14.0398 16.823 12.7324 19.5123 12.7324 22.5429C12.7324 25.1106 13.593 27.288 15.3314 29.0917C17.0683 30.8939 19.1454 31.7764 21.6409 31.7706C25.4868 31.7616 28.6481 29.3384 30.0173 25.4456L30.0173 25.4456C30.28 24.6988 30.4191 23.7455 30.4435 22.8043C30.4679 21.8621 30.3786 20.891 30.1577 20.106ZM30.1577 20.106L29.6764 20.2414M30.1577 20.106L29.6764 20.2414M29.6764 20.2414C30.0834 21.6882 30.0256 23.915 29.5457 25.2797L15.6914 28.7447C14.0458 27.0373 13.2324 24.9856 13.2324 22.5429C13.2324 19.6615 14.4719 17.1252 16.6781 15.4925C18.7259 13.977 21.1005 13.4753 23.4716 14.0568C26.3695 14.7678 28.8252 17.2154 29.6764 20.2414ZM91.2361 0.665392C91.2737 0.66797 91.2906 0.669886 91.294 0.670143C93.7205 1.20163 95.6664 3.10512 96.3089 5.6041L96.309 5.60457C96.3098 5.60915 96.3167 5.64584 96.3252 5.73857C96.3338 5.83127 96.3424 5.95972 96.3507 6.13145C96.3674 6.47444 96.3825 6.97402 96.396 7.67413C96.423 9.07343 96.4433 11.2586 96.4584 14.5619C96.4887 21.1677 96.4981 32.2347 96.4989 50.406C96.499 53.0255 96.4992 55.4927 96.4995 57.8167C96.5014 76.6945 96.5023 86.1267 96.4206 90.9927C96.3746 93.7354 96.3024 94.9946 96.1962 95.6714C96.145 95.9979 96.0886 96.1686 96.0316 96.2979C96.0011 96.3671 95.9671 96.4318 95.9224 96.5146C95.879 96.595 95.8248 96.6936 95.7674 96.8107L95.7673 96.8108C95.5886 97.1756 95.0969 97.7889 94.5069 98.3893C93.9163 98.9903 93.3152 99.4889 92.9605 99.6684C92.8313 99.7338 92.7323 99.7893 92.6464 99.8376C92.4 99.9759 92.2609 100.054 91.8218 100.131C91.1786 100.244 89.9896 100.321 87.3765 100.37C82.7821 100.457 73.898 100.456 56.1148 100.455C53.7542 100.455 51.2369 100.454 48.5519 100.454C33.3568 100.454 22.7686 100.442 15.9064 100.414C12.4751 100.4 9.97687 100.382 8.30059 100.359C7.46213 100.348 6.83153 100.335 6.39349 100.322C6.17415 100.315 6.00604 100.308 5.88556 100.301C5.79071 100.296 5.74283 100.291 5.7255 100.289C5.71779 100.289 5.71613 100.288 5.71909 100.289C5.31686 100.201 4.62461 99.957 4.20966 99.7549C3.76178 99.5366 3.15829 99.0745 2.59057 98.5244C2.02257 97.974 1.5445 97.3878 1.3167 96.9521L1.31665 96.952C1.24011 96.8057 1.17697 96.6996 1.12335 96.6096C0.986274 96.3793 0.911427 96.2536 0.833964 95.8266C0.716667 95.1799 0.636329 93.9615 0.585554 91.2378C0.497155 86.4958 0.49833 77.3073 0.500684 58.9164C0.501022 56.2742 0.501384 53.4422 0.501509 50.406C0.502271 32.2347 0.511728 21.1677 0.541978 14.5619C0.557105 11.2586 0.577422 9.07343 0.604387 7.67413C0.617878 6.97402 0.632967 6.47444 0.649673 6.13145C0.658037 5.95972 0.66662 5.83127 0.675173 5.73857C0.683714 5.64601 0.690564 5.60928 0.691437 5.6046C0.691514 5.60418 0.691545 5.60402 0.691525 5.60409C1.32011 3.15909 3.13603 1.32167 5.49288 0.718911C5.49996 0.718185 5.51405 0.716807 5.5373 0.715112C5.58636 0.711536 5.65656 0.707727 5.74936 0.703809C5.93424 0.696005 6.19584 0.688299 6.53079 0.680753C7.19998 0.665678 8.15222 0.651452 9.34828 0.63812C11.7399 0.611461 15.1004 0.58844 19.1079 0.569253C27.1225 0.53088 37.7218 0.507855 48.3266 0.501685C58.9315 0.495515 69.5413 0.506199 77.577 0.535238C81.595 0.549758 84.9687 0.568864 87.3761 0.592736C88.5801 0.604675 89.5409 0.617792 90.2194 0.632088C90.559 0.639243 90.8255 0.646648 91.0155 0.65425C91.1108 0.658063 91.184 0.661812 91.2361 0.665392ZM82.8392 86.5341H83.3413L83.3392 86.032L83.2737 70.5957C83.2298 60.2283 83.15 54.5965 83.0251 53.4411C82.388 47.5494 80.8293 43.3847 78.1222 40.6511L77.7669 41.003L78.1222 40.6511C77.5883 40.1121 76.9559 39.5093 76.7169 39.3176C75.0084 37.9472 72.1037 36.8166 69.3893 36.4304C64.1202 35.6808 60.3708 36.301 56.5666 38.606L56.8257 39.0336L56.5666 38.606C55.0743 39.5102 53.1493 41.355 52.1065 42.8602L52.0856 41.1461L52.0444 37.7715L52.0383 37.2747L51.5415 37.2776L44.6431 37.3189L37.7447 37.3602L37.2485 37.3631L37.2477 37.8594L37.2091 61.9463L37.1706 86.0333L37.1698 86.5341H37.6706H44.9078H52.1452H52.6432L52.6452 86.0361L52.7015 72.1871L52.7035 71.683C52.7322 64.6367 52.7464 61.1345 52.8433 59.1088C52.8926 58.076 52.9628 57.4466 53.0627 56.9372C53.1585 56.4491 53.2833 56.06 53.4619 55.5035L53.486 55.4285C54.0246 53.749 54.92 52.4911 56.1185 51.6485C57.3189 50.8046 58.8606 50.3512 60.7334 50.3468C62.8441 50.342 64.4157 50.9632 65.4509 52.1101L65.8221 51.775L65.4509 52.1101C65.839 52.5399 66.081 52.8486 66.2811 53.1908C66.4827 53.5357 66.6527 53.9333 66.877 54.5535L67.3472 54.3834L66.877 54.5535C67.2571 55.6041 67.4554 56.2597 67.5603 58.5175C67.6666 60.805 67.674 64.6886 67.6743 72.1851L67.6749 86.0341L67.675 86.5341H68.1749H75.5071H82.8392ZM28.8264 86.5341H29.3272L29.3264 86.0333L29.2878 61.9463L29.2492 37.8594L29.2484 37.363L28.7521 37.3602L21.5456 37.3189L14.3392 37.2776L13.8363 37.2747V37.7776V61.9058V86.0341V86.5341H14.3363H21.5813H28.8264Z" fill="url(#paint0_linear_1063_167)" fill-opacity="0.8" stroke="black"/>
<defs>
<linearGradient id="paint0_linear_1063_167" x1="111.246" y1="115.76" x2="53.2815" y2="139.592" gradientUnits="userSpaceOnUse">
<stop stop-color="#5BB9EF"/>
<stop offset="1" stop-color="#72BA58" stop-opacity="0.97"/>
</linearGradient>
</defs>
</svg>
