<svg width="52" height="52" viewBox="0 0 103 89" fill="none" xmlns="http://www.w3.org/2000/svg">
<path d="M59.7391 2.88127L59.7391 2.88125C63.2459 1.15314 66.4612 0.36991 69.7457 0.517561C73.0347 0.665413 76.4347 1.74852 80.3064 3.81932L86.9582 7.37704L87.1713 7.49098L87.3929 7.3949L95.2959 3.9691L101.805 1.14759L100.428 3.5204L100.427 3.52052C99.2777 5.50244 96.8038 8.5885 94.9496 10.3477C94.9496 10.3477 94.9496 10.3478 94.9496 10.3478L91.5208 13.5999L90.3076 14.7507L91.9534 14.4548L97.1288 13.5244L97.1289 13.5244L100.865 12.8539L96.9928 17.1423C96.9928 17.1423 96.9928 17.1423 96.9928 17.1423C95.0052 19.343 93.7463 20.9896 92.9947 22.682C92.237 24.3882 92.0119 26.1013 92.0119 28.4019C92.0119 31.4018 91.1498 37.4448 90.0916 41.8066C83.7556 67.9132 63.8065 85.3347 37.5444 87.7172C26.8275 88.6897 17.8615 86.8492 7.34296 81.4998L7.34287 81.4997L1.74848 78.6559L9.99426 77.8327C9.9943 77.8327 9.99434 77.8326 9.99438 77.8326C16.0484 77.2297 22.1999 75.6492 25.5909 73.7911C25.591 73.791 25.5911 73.791 25.5911 73.791L31.0524 70.8013L32.0221 70.2704L30.9831 69.8928L24.308 67.4668L24.1372 67.9367L24.3079 67.4668C17.502 64.9939 13.3786 61.797 11.219 57.4682C10.9328 56.8942 10.7705 56.5056 10.717 56.2391C10.6913 56.1113 10.6993 56.0504 10.7048 56.0294C10.705 56.0286 10.7052 56.0278 10.7053 56.0272C10.7067 56.0215 10.7073 56.0187 10.722 56.0078C10.7967 55.9525 11.0187 55.8741 11.5706 55.8555C12.093 55.8378 12.8078 55.8739 13.7656 55.9458L13.803 55.4472L13.7656 55.9458C16.3489 56.1396 18.3426 56.2447 19.7608 56.2282C20.4685 56.22 21.0518 56.1814 21.5014 56.1029C21.7266 56.0635 21.932 56.0119 22.1089 55.9422C22.282 55.8741 22.4586 55.7767 22.5946 55.6283C22.7423 55.4671 22.827 55.2607 22.8186 55.0297C22.8108 54.8171 22.726 54.6291 22.6275 54.476C22.4346 54.1763 22.0968 53.8702 21.6792 53.5565C20.8292 52.918 19.4563 52.1096 17.6156 51.1086L17.6155 51.1086C14.3136 49.3135 11.1488 46.6314 8.8132 43.8713C7.64613 42.4922 6.69432 41.1032 6.03655 39.8069C5.37546 38.5039 5.02855 37.3282 5.02855 36.3658C5.02855 36.0157 5.06568 35.8139 5.11074 35.7074C5.13776 35.6436 5.14969 35.6456 5.15529 35.6465C5.1561 35.6467 5.15678 35.6468 5.15735 35.6467C5.21271 35.6359 5.35898 35.6392 5.65736 35.7505C5.94366 35.8572 6.31179 36.0406 6.78188 36.3106L6.78201 36.3106C7.53918 36.7452 8.70908 37.1122 9.95878 37.368C11.2183 37.6259 12.6081 37.7806 13.8291 37.767C13.8292 37.767 13.8292 37.767 13.8293 37.767L18.1196 37.7212L19.4272 37.7072L18.4438 36.8452L13.5374 32.5446C12.2123 31.3829 10.7919 29.8873 9.57428 28.4145C8.35155 26.9355 7.35806 25.5093 6.86548 24.4869C6.42159 23.5654 6.03206 22.1688 5.72584 20.5372C5.42125 18.9143 5.20493 17.0914 5.09469 15.3365C4.98434 13.58 4.9811 11.905 5.09813 10.5758C5.15672 9.9104 5.2444 9.34432 5.359 8.90344C5.44894 8.55741 5.54637 8.32565 5.63379 8.18454C5.70226 8.2031 5.79968 8.23802 5.92935 8.29764C6.28888 8.46296 6.78647 8.76621 7.39276 9.19665C8.599 10.053 10.1658 11.3627 11.7964 12.919C15.4639 16.4212 20.3546 19.771 25.364 22.3981C30.3694 25.0231 35.5305 26.9461 39.7435 27.5662C41.2312 27.7851 42.3806 27.9492 43.2566 28.0117C44.1139 28.073 44.8061 28.0473 45.323 27.8102C45.904 27.5437 46.1786 27.0575 46.3059 26.4592C46.4259 25.8956 46.4325 25.1546 46.4325 24.2665C46.4325 22.1172 47.1971 18.9504 48.3582 15.8379C49.5183 12.7281 51.0436 9.75438 52.5128 7.97833C53.0791 7.29449 54.1711 6.36909 55.5012 5.42837C56.8225 4.49382 58.3428 3.56924 59.7391 2.88127ZM5.53543 8.16696C5.53527 8.16679 5.5378 8.16665 5.54349 8.16705C5.53844 8.16733 5.5356 8.16713 5.53543 8.16696Z" fill="url(#paint0_linear_1063_165)" fill-opacity="0.8" stroke="black"/>
<defs>
<linearGradient id="paint0_linear_1063_165" x1="118.128" y1="101.439" x2="60.4814" y2="130.159" gradientUnits="userSpaceOnUse">
<stop stop-color="#5BB9EF"/>
<stop offset="1" stop-color="#72BA58" stop-opacity="0.97"/>
</linearGradient>
</defs>
</svg>
